<?xml version="1.0" standalone="no"?>
<!DOCTYPE svg PUBLIC "-//W3C//DTD SVG 1.1//EN" "http://www.w3.org/Graphics/SVG/1.1/DTD/svg11.dtd">
<svg xmlns="http://www.w3.org/2000/svg">
<metadata>Copyright (C) 2020 by original authors @ fontello.com</metadata>
<defs>
<font id="tallence-cme" horiz-adv-x="1000" >
<font-face font-family="tallence-cme" font-weight="400" font-stretch="normal" units-per-em="1000" ascent="850" descent="-150" />
<missing-glyph horiz-adv-x="1000" />
<glyph glyph-name="cf-015-star-rating" unicode="&#xe800;" d="M929 489q0-12-15-27l-202-197 48-279q0-4 0-12 0-11-6-19t-17-9q-10 0-22 7l-251 132-250-132q-12-7-23-7-11 0-17 9t-6 19q0 4 1 12l48 279-203 197q-14 15-14 27 0 21 31 26l280 40 126 254q11 23 27 23t28-23l125-254 280-40q32-5 32-26z" horiz-adv-x="928.6" />

<glyph glyph-name="tl-contender-grau-s" unicode="&#xe801;" d="M765 585v265h-765v-1000h1000v735z m-380-237a10 10 0 0 0 0-3l-70-179a13 13 0 0 0-11-8h-22a13 13 0 0 0-13 12v10a22 22 0 0 0 0 7l63 163-63 162a22 22 0 0 0 0 8v10a13 13 0 0 0 13 12h22a13 13 0 0 0 11-8l70-179a12 12 0 0 0 0-3 12 12 0 0 0 0-2 14 14 0 0 0 0-2z m135 0a12 12 0 0 0 0-3l-68-179a13 13 0 0 0-12-8h-21a13 13 0 0 0-13 12v10a22 22 0 0 0 0 7l61 163-61 162a22 22 0 0 0 0 8v10a13 13 0 0 0 11 12h22a13 13 0 0 0 12-8l68-179a12 12 0 0 0 0-3 12 12 0 0 0 0-2 12 12 0 0 0 0-2z m135 0a10 10 0 0 0 0-2l-68-180a13 13 0 0 0-12-8h-21a13 13 0 0 0-13 12v10a22 22 0 0 0 0 8l61 162-61 162a22 22 0 0 0 0 8v10a13 13 0 0 0 11 12h22a13 13 0 0 0 12-8l68-179a10 10 0 0 0 0-3 11 11 0 0 0 0-4z" horiz-adv-x="1000" />

<glyph glyph-name="tl-contendor-grau-m" unicode="&#xe802;" d="M765 585v265h-765v-1000h1000v735z m-357-237a12 12 0 0 0 0-2l-66-175a13 13 0 0 0-11-8h-22a12 12 0 0 0-12 12v9a21 21 0 0 0 0 8l61 158-60 158a22 22 0 0 0 0 8v9a12 12 0 0 0 11 13h21a13 13 0 0 0 12-8l66-175a11 11 0 0 0 0-2 10 10 0 0 0 0-5z m132 0a11 11 0 0 0 0-2l-66-175a13 13 0 0 0-12-8h-21a12 12 0 0 0-13 12v9a21 21 0 0 0 0 8l62 158-60 158a22 22 0 0 0 0 8v9a12 12 0 0 0 13 12h20a13 13 0 0 0 12-8l66-175a12 12 0 0 0 0-2 10 10 0 0 0 0-2 12 12 0 0 0-1-2z m132 0a11 11 0 0 0 0-2l-66-175a13 13 0 0 0-12-8h-21a12 12 0 0 0-13 12v9a21 21 0 0 0 0 8l61 158-58 158a22 22 0 0 0 0 8v9a12 12 0 0 0 12 12h19a13 13 0 0 0 11-8l66-175a12 12 0 0 0 0-2 12 12 0 0 0 0-2 12 12 0 0 0 1-2z m356 291v11a16 16 0 0 0 0 6l71 192a3 3 0 0 0 4 2h29a3 3 0 0 0 3-5l-76-207a3 3 0 0 0-3-2h-25a3 3 0 0 0-3 3z m119-4h24a3 3 0 0 1 3 3l76 207a3 3 0 0 1-3 5h-28a3 3 0 0 1-3-2l-72-192a16 16 0 0 1 0-6v-11a3 3 0 0 1 3-4z m-202 0h24a3 3 0 0 1 3 4v11a16 16 0 0 1 0 6l-72 192a3 3 0 0 1-3 2h-15a3 3 0 0 1-4-2l-70-192a16 16 0 0 1 0-6v-11a3 3 0 0 1 4-3h23a3 3 0 0 1 3 2l51 143 52-143a3 3 0 0 1 3-3z" horiz-adv-x="1250" />

<glyph glyph-name="tl-formeditor-grau-m" unicode="&#xe803;" d="M765 585v265h-765v-1000h1000v735z m-434-79h372a9 9 0 0 0 9-6l11-40a9 9 0 0 0-8-12h-371a9 9 0 0 0-9 6l-12 40a9 9 0 0 0 8 12z m-137-29a41 41 0 1 0 41-41 41 41 0 0 0-40 41z m35-156a41 41 0 1 0 41-41 41 41 0 0 0-41 39z m88-203a41 41 0 1 0 40 40 41 41 0 0 0-40-42z m53 180l-12 39a9 9 0 0 0 8 13h372a9 9 0 0 0 9-7l11-40a9 9 0 0 0-8-12h-372a9 9 0 0 0-8 5z m426-161h-371a9 9 0 0 0-9 6l-12 40a9 9 0 0 0 9 12h372a9 9 0 0 0 8-6l12-40a9 9 0 0 0-8-14z m232 502v11a16 16 0 0 0 0 6l71 192a3 3 0 0 0 4 2h29a3 3 0 0 0 3-5l-76-207a3 3 0 0 0-3-2h-25a3 3 0 0 0-3 3z m119-4h24a3 3 0 0 1 3 3l76 207a3 3 0 0 1-3 5h-28a3 3 0 0 1-3-2l-72-192a16 16 0 0 1 0-6v-11a3 3 0 0 1 3-4z m-202 0h24a3 3 0 0 1 3 4v11a16 16 0 0 1 0 6l-72 192a3 3 0 0 1-3 2h-15a3 3 0 0 1-4-2l-70-192a16 16 0 0 1 0-6v-11a3 3 0 0 1 4-3h23a3 3 0 0 1 3 2l51 143 52-143a3 3 0 0 1 3-3z" horiz-adv-x="1250" />

<glyph glyph-name="tl-formeditor-grau-s" unicode="&#xe804;" d="M765 585v265h-765v-1000h1000v735z m-448-81h375a9 9 0 0 0 9-7l21-57a10 10 0 0 0-8-13h-376a9 9 0 0 0-9 7l-21 57a10 10 0 0 0 9 13z m-134-42a42 42 0 1 0 41-41 42 42 0 0 0-41 41z m55-153a42 42 0 1 0 42-42 42 42 0 0 0-42 45z m97-193a42 42 0 1 0 42 42 42 42 0 0 0-42-42z m50 164l-21 57a10 10 0 0 0 8 13h375a9 9 0 0 0 8-6l22-58a10 10 0 0 0-8-13h-376a9 9 0 0 0-8 7z m439-161h-375a9 9 0 0 0-9 7l-21 58a10 10 0 0 0 8 12h375a9 9 0 0 0 9-6l21-58a10 10 0 0 0-8-13z" horiz-adv-x="1000" />

<glyph glyph-name="tl-redirector-grau-m" unicode="&#xe805;" d="M765 585v265h-765v-1000h1000v735z m-362-69a23 23 0 0 0 0-8l-59-158 58-158a23 23 0 0 0 0-8v-9a12 12 0 0 0-12-12h-21a12 12 0 0 0-11 8l-64 175a477 477 0 0 0 0 4 12 12 0 0 0 0 2 11 11 0 0 0 0 2l64 175a12 12 0 0 0 12 8h21a12 12 0 0 0 12-12z m304-168a11 11 0 0 0 0-2l-65-175a12 12 0 0 0-12-8h-21a12 12 0 0 0-12 12v9a23 23 0 0 0 0 8l59 158-58 158a23 23 0 0 0 0 8v9a12 12 0 0 0 11 13h21a12 12 0 0 0 12-8l64-175a12 12 0 0 0 0-2 12 12 0 0 0 0-3 12 12 0 0 0 1-2z m321 291v11a16 16 0 0 0 0 6l71 192a3 3 0 0 0 4 2h29a3 3 0 0 0 3-5l-76-207a3 3 0 0 0-3-2h-25a3 3 0 0 0-3 3z m119-4h24a3 3 0 0 1 3 3l76 207a3 3 0 0 1-3 5h-28a3 3 0 0 1-3-2l-72-192a16 16 0 0 1 0-6v-11a3 3 0 0 1 3-4z m-202 0h24a3 3 0 0 1 3 4v11a16 16 0 0 1 0 6l-72 192a3 3 0 0 1-3 2h-15a3 3 0 0 1-4-2l-70-192a16 16 0 0 1 0-6v-11a3 3 0 0 1 4-3h23a3 3 0 0 1 3 2l51 143 52-143a3 3 0 0 1 3-3z" horiz-adv-x="1250" />

<glyph glyph-name="tl-redirector-grau-s" unicode="&#xe806;" d="M765 585v265h-765v-1000h1000v735z m-365-65a23 23 0 0 0 0-8l-61-162 60-162a24 24 0 0 0 0-8v-10a12 12 0 0 0-13-12h-19a13 13 0 0 0-12 8l-66 179a14 14 0 0 0 0 3 11 11 0 0 0 0 2 12 12 0 0 0 0 2 13 13 0 0 0 0 2l66 180a13 13 0 0 0 12 8h21a12 12 0 0 0 12-12z m312-173a13 13 0 0 0 0-2l-67-179a13 13 0 0 0-11-8h-22a12 12 0 0 0-12 12v10a23 23 0 0 0 0 7l61 163-60 162a24 24 0 0 0 0 8v10a12 12 0 0 0 11 12h22a13 13 0 0 0 11-8l67-179a14 14 0 0 0 0-3 12 12 0 0 0 0-4z" horiz-adv-x="1000" />

<glyph glyph-name="cf-016-date-field" unicode="&#xe808;" d="M744 685l167 0 0-782-893 0 0 782 168 0 0-56q0-46 33-79t79-33 78 33 33 79l0 56 112 0 0-56q0-46 33-79t79-33 78 33 33 79l0 56z m-446-669l0 111-112 0 0-111 112 0z m0 223l0 112-112 0 0-112 112 0z m223-223l0 111-112 0 0-111 112 0z m0 223l0 112-112 0 0-112 112 0z m111-223l112 111-112 0 0-111z m112 223l0 112-112 0 0-112 112 0z m-503 391l0 112q0 23 17 39t40 16 40-16 15-39l0-112q0-24-16-40t-39-16q-24 0-40 16t-17 40z m335 0l0 112q0 23 16 39t40 16q23 0 40-16t16-39l0-112q0-24-16-40t-39-16-40 16-17 40z" horiz-adv-x="928" />

<glyph glyph-name="cf-001-input-text" unicode="&#xe823;" d="M908 524l-293 0 0-620-235 0 0 620-288 0 0 214 816 0 0-214z" horiz-adv-x="1000" />

<glyph glyph-name="cf-002-input-number" unicode="&#xe824;" d="M371 8l-164 0 0 512-161-46 0 122 310 105 15 0 0-693z m589 0l-493 0 0 104 227 235c56 62 84 112 84 149 0 30-7 52-20 68-13 16-32 23-58 23-24 0-45-10-60-31-16-21-24-47-24-78l-164 0c0 43 11 82 33 118 22 36 52 64 90 85 39 20 82 30 129 30 77 0 136-17 177-52 41-34 62-84 62-149 0-27-6-54-16-80-10-26-26-53-48-81-22-29-57-67-106-114l-91-104 278 0 0-123z" horiz-adv-x="1000" />

<glyph glyph-name="cf-003-input-phone" unicode="&#xe825;" d="M134 481l717 0c17 0 31-14 31-31l0-481c0-17-14-31-31-31l-717 0c-17 0-31 14-31 31l0 481c0 17 14 31 31 31z m186-117l0-81 86 0 0 81-86 0z m0-114l0-81 86 0 0 81-86 0z m129 114l0-81 87 0 0 81-87 0z m0-114l0-81 87 0 0 81-87 0z m130 114l0-81 87 0 0 81-87 0z m0-114l0-81 87 0 0 81-87 0z m-259-114l0-81 86 0 0 81-86 0z m129 0l0-81 87 0 0 81-87 0z m130 0l0-81 87 0 0 81-87 0z m-529 420l0 89c0 19 14 35 35 39 141 28 281 41 417 41 137 0 273-13 409-40l0 0c20-4 34-21 34-40l0-89c0-22-20-40-43-40l-151 0c-18 1-27 11-27 30 0 30-23 55-55 60-63 10-119 15-167 15-46 0-100-5-161-14l0 0c-34-6-59-33-59-66 0-16-9-24-27-25l-162 0c-24 0-43 18-43 40l0 0z" horiz-adv-x="1000" />

<glyph glyph-name="cf-004-input-fax" unicode="&#xe826;" d="M197 462l0 282 607 0 0-282 114 0c17 0 31-14 31-31l0-474c0-17-14-31-31-31l-851 0c-17 0-31 14-31 31l0 474c0 17 14 31 31 31l130 0z m554-36l0 272-501 0 0-272 501 0z m-432-80l0-79 87 0 0 79-87 0z m0-112l0-80 87 0 0 80-87 0z m130 112l0-79 87 0 0 79-87 0z m0-112l0-80 87 0 0 80-87 0z m130 112l0-79 86 0 0 79-86 0z m0-112l0-80 86 0 0 80-86 0z m-260-112l0-80 87 0 0 80-87 0z m130 0l0-80 87 0 0 80-87 0z m130 0l0-80 86 0 0 80-86 0z m-260 422l341 0 0-50-341 0 0 50z m0 86l341 0 0-50-341 0 0 50z" horiz-adv-x="1000" />

<glyph glyph-name="cf-005-input-mail" unicode="&#xe827;" d="M861 689l-733 0c-50 0-91-38-91-84l-1-509c0-47 42-85 92-85l733 0c50 0 92 38 92 85l0 509c0 46-42 84-92 84z m0-169l-366-306-367 306 0 85 367-306 366 306 0-85z" horiz-adv-x="1000" />

<glyph glyph-name="cf-006-input-street-nr" unicode="&#xe828;" d="M599-100l0 269c0 17-14 31-31 31l-136 0c-17 0-31-14-31-31l0-269-167 0c-17 0-31 14-31 31l0 356c0 8 3 16 9 22l266 269c12 12 32 12 44 0 0 0 0 0 0 0l266-269c6-6 9-14 9-22l0-356c0-17-13-31-31-31l-167 0z m-514 341l-70 70 485 489 485-489-70-70-415 417-415-417z m609 424l0 71 98 0 0-169-98 98z" horiz-adv-x="1000" />

<glyph glyph-name="cf-007-input-city-zip" unicode="&#xe829;" d="M135 455c0 202 163 365 365 365 202 0 365-163 365-365 0-16-1-31-2-46-14-162-140-253-378-486-134 141-261 244-311 367-25 49-39 105-39 165z m358-146c81 0 146 65 146 146 0 80-65 146-146 146-81 0-146-66-146-146 0-81 65-146 146-146z" horiz-adv-x="1000" />

<glyph glyph-name="cf-008-text-area" unicode="&#xe82a;" d="M125 413l0-438 750 0 0 438-312 0 0 62 375 0 0-62 0-501-63 0-812 0 0 63 0 500 62 0 125 0 0-62-125 0z m574 174l-216 0 0-485-146 0 0 485-214 0 0 136 576 0 0-136z" horiz-adv-x="1000" />

<glyph glyph-name="cf-009-radio-group" unicode="&#xe82b;" d="M500-80c-238 0-430 192-430 430 0 238 192 430 430 430 238 0 430-192 430-430 0-238-192-430-430-430z m0 78c194 0 352 158 352 352 0 194-158 352-352 352-194 0-351-158-351-352 0-194 157-352 351-352z m0 137c-119 0-215 96-215 215 0 119 96 215 215 215 119 0 215-96 215-215 0-119-96-215-215-215z" horiz-adv-x="1000" />

<glyph glyph-name="cf-010-checkbox-group" unicode="&#xe82c;" d="M403 432l318 352c11 13 31 14 44 2l140-126c13-12 14-31 3-44l-459-509c-11-12-30-14-43-3l-310 256c-14 11-15 31-4 44l120 146c11 13 30 15 44 4l147-122z m-215 230l0-624 624 0 0 624-624 0z m-63 63l750 0 0-750-750 0 0 750z" horiz-adv-x="1000" />

<glyph glyph-name="cf-011-select-dropdown" unicode="&#xe82d;" d="M125-25l688 0 0 125-688 0 0-125z m0-63l-62 0 0 563 0 250 875 0 0-250-63 0 0-563-62 0-688 0z m0 251l688 0 0 125-688 0 0-125z m0 187l688 0 0 125-688 0 0-125z m661 330l-72-62-67 67-44-45 108-107 116 100-41 47z" horiz-adv-x="1000" />

<glyph glyph-name="cf-012-upload" unicode="&#xe82e;" d="M662 482l0-356-319 0 0 356-120 0c-18 0-32 14-32 31 0 10 5 19 13 25l279 214c12 8 27 8 38 0l280-214c14-11 16-30 6-44-6-8-15-12-25-12l-120 0z m176-446l0 187 84 0 0-279-839 0 0 279 84 0 0-187 671 0z" horiz-adv-x="1000" />

<glyph glyph-name="cf-013-confirm" unicode="&#xe82f;" d="M125 393l-63 0 0 375 63 0 250 0 15 0 46 51 93-84-92-101 0-241-62 0-250 0z m0 63l250 0 0 108-94-104-156 128 0-132z m0 250l0-73 57 70 86-71 66 74-209 0z m375-162l0 72 500 0 0-72-500 0z m0-144l0 72 500 0 0-72-500 0z m-438-143l0 71 938 0 0-71-938 0z m0-137l0 72 938 0 0-72-938 0z m0-137l0 72 701 0 0-72-701 0z" horiz-adv-x="1000" />

<glyph glyph-name="cf-014-infotext" unicode="&#xe830;" d="M63 751l338 0 0-338-338 0 0 338z m193-276l0 165-51 0 0-165 51 0z m-54 208c0-8 2-14 8-18 5-5 12-7 20-7 9 0 15 2 21 7 5 4 8 10 8 18 0 7-3 13-8 18-6 4-12 7-21 7-8 0-15-3-20-7-6-5-8-11-8-18z m298-139l0 72 500 0 0-72-500 0z m0-144l0 72 500 0 0-72-500 0z m-438-143l0 71 938 0 0-71-938 0z m0-137l0 72 938 0 0-72-938 0z m0-137l0 72 701 0 0-72-701 0z" horiz-adv-x="1000" />
</font>
</defs>
</svg>
