<?xml version="1.0" encoding="utf-8"?>
<svg version="1.1" xmlns="http://www.w3.org/2000/svg">
  <style type="text/css">
    @media screen {
      #small {
        display: initial;
      }
      #medium, #large {
        display: none;
      }
    }
    @media screen and (min-width: 24px) {
      #small {
        display: none;
      }
      #medium {
        display: initial;
      }
    }
    @media screen and (min-width: 32px) {
      #medium {
        display: none;
      }
      #large {
        display: initial;
      }
    }
  </style>
  <svg id="small" version="1.1" xmlns="http://www.w3.org/2000/svg" x="0px" y="0px"
       viewBox="0 0 16 16" enable-background="new 0 0 16 16">
    <g>
      <path fill="#3D4242" d="M 9.792969 3.445312 L 9.792969 0 L 0 0 L 0 13 L 12.800781 13 L 12.800781 3.445312 Z M 5.222656 6.527344 C 5.222656 6.53125 5.222656 6.535156 5.222656 6.539062 C 5.222656 6.542969 5.222656 6.546875 5.222656 6.550781 L 4.378906 8.828125 C 4.355469 8.882812 4.300781 8.925781 4.238281 8.929688 L 3.957031 8.929688 C 3.871094 8.929688 3.800781 8.859375 3.800781 8.773438 L 3.800781 8.65625 C 3.796875 8.640625 3.796875 8.625 3.796875 8.605469 C 3.796875 8.585938 3.796875 8.570312 3.800781 8.550781 L 3.800781 8.554688 L 4.582031 6.5 L 3.8125 4.445312 C 3.8125 4.429688 3.808594 4.414062 3.808594 4.394531 C 3.808594 4.375 3.8125 4.359375 3.8125 4.339844 L 3.8125 4.34375 L 3.8125 4.226562 C 3.8125 4.222656 3.8125 4.214844 3.8125 4.210938 C 3.8125 4.128906 3.875 4.0625 3.953125 4.054688 L 4.222656 4.054688 C 4.292969 4.054688 4.351562 4.097656 4.375 4.160156 L 4.378906 4.160156 L 5.222656 6.433594 C 5.222656 6.4375 5.222656 6.445312 5.222656 6.449219 C 5.222656 6.453125 5.222656 6.457031 5.222656 6.460938 C 5.222656 6.472656 5.226562 6.480469 5.226562 6.492188 C 5.226562 6.503906 5.222656 6.515625 5.222656 6.527344 Z M 6.910156 6.527344 C 6.914062 6.53125 6.914062 6.535156 6.914062 6.539062 C 6.914062 6.542969 6.910156 6.546875 6.910156 6.550781 L 6.066406 8.828125 C 6.042969 8.890625 5.980469 8.929688 5.914062 8.929688 L 5.644531 8.929688 C 5.640625 8.929688 5.636719 8.929688 5.632812 8.929688 C 5.546875 8.929688 5.476562 8.863281 5.476562 8.777344 C 5.476562 8.777344 5.476562 8.773438 5.476562 8.773438 L 5.476562 8.65625 C 5.476562 8.640625 5.472656 8.625 5.472656 8.605469 C 5.472656 8.585938 5.476562 8.570312 5.476562 8.550781 L 5.476562 8.554688 L 6.273438 6.5 L 5.503906 4.445312 C 5.5 4.429688 5.5 4.414062 5.5 4.394531 C 5.5 4.375 5.5 4.359375 5.503906 4.339844 L 5.503906 4.34375 L 5.503906 4.226562 C 5.503906 4.226562 5.503906 4.222656 5.503906 4.222656 C 5.503906 4.136719 5.570312 4.070312 5.65625 4.070312 C 5.660156 4.070312 5.664062 4.070312 5.671875 4.070312 L 5.667969 4.070312 L 5.925781 4.070312 C 5.996094 4.070312 6.054688 4.109375 6.078125 4.171875 L 6.925781 6.449219 C 6.925781 6.453125 6.925781 6.457031 6.925781 6.460938 C 6.925781 6.464844 6.925781 6.46875 6.925781 6.472656 C 6.925781 6.476562 6.925781 6.484375 6.925781 6.488281 C 6.925781 6.492188 6.925781 6.496094 6.925781 6.5 C 6.921875 6.511719 6.914062 6.519531 6.910156 6.527344 Z M 8.601562 6.527344 C 8.601562 6.53125 8.601562 6.535156 8.601562 6.539062 C 8.601562 6.542969 8.601562 6.546875 8.601562 6.550781 L 7.757812 8.828125 C 7.730469 8.890625 7.671875 8.929688 7.601562 8.929688 L 7.335938 8.929688 C 7.328125 8.929688 7.324219 8.929688 7.320312 8.929688 C 7.238281 8.929688 7.167969 8.863281 7.167969 8.777344 C 7.167969 8.777344 7.167969 8.773438 7.167969 8.773438 L 7.167969 8.65625 C 7.164062 8.640625 7.164062 8.625 7.164062 8.605469 C 7.164062 8.585938 7.164062 8.570312 7.167969 8.550781 L 7.167969 8.554688 L 7.949219 6.5 L 7.207031 4.445312 C 7.203125 4.429688 7.203125 4.414062 7.203125 4.394531 C 7.203125 4.375 7.203125 4.359375 7.207031 4.339844 L 7.207031 4.34375 L 7.207031 4.226562 C 7.207031 4.140625 7.273438 4.070312 7.359375 4.070312 L 7.601562 4.070312 C 7.664062 4.074219 7.71875 4.117188 7.742188 4.171875 L 8.589844 6.449219 C 8.589844 6.453125 8.589844 6.457031 8.589844 6.460938 C 8.589844 6.464844 8.589844 6.46875 8.589844 6.472656 C 8.589844 6.476562 8.589844 6.484375 8.589844 6.488281 C 8.589844 6.492188 8.589844 6.496094 8.589844 6.5 C 8.59375 6.507812 8.597656 6.515625 8.601562 6.523438 Z M 13.160156 2.742188 L 13.160156 2.601562 C 13.15625 2.589844 13.15625 2.574219 13.15625 2.5625 C 13.15625 2.546875 13.15625 2.535156 13.160156 2.519531 L 13.160156 2.523438 L 14.066406 0.0273438 C 14.070312 0.0078125 14.085938 -0.00390625 14.105469 -0.00390625 C 14.109375 -0.00390625 14.113281 -0.00390625 14.117188 0 L 14.488281 0 C 14.492188 0 14.496094 0 14.5 0 C 14.523438 0 14.539062 0.015625 14.539062 0.0390625 C 14.539062 0.046875 14.535156 0.0585938 14.527344 0.0664062 L 13.554688 2.757812 C 13.550781 2.769531 13.535156 2.78125 13.519531 2.78125 C 13.519531 2.78125 13.515625 2.78125 13.515625 2.78125 L 13.195312 2.78125 C 13.175781 2.78125 13.15625 2.765625 13.15625 2.742188 Z M 14.679688 2.796875 L 14.988281 2.796875 C 15.011719 2.796875 15.027344 2.777344 15.027344 2.757812 L 16 0.0664062 C 16.007812 0.0585938 16.011719 0.046875 16.011719 0.0390625 C 16.011719 0.015625 15.996094 0 15.972656 0 C 15.96875 0 15.964844 0 15.960938 0 L 15.605469 0 C 15.601562 0 15.601562 0 15.601562 0 C 15.585938 0 15.570312 0.0117188 15.566406 0.0273438 L 14.644531 2.523438 C 14.640625 2.535156 14.640625 2.546875 14.640625 2.5625 C 14.640625 2.574219 14.640625 2.589844 14.644531 2.601562 L 14.644531 2.742188 C 14.640625 2.746094 14.640625 2.753906 14.640625 2.757812 C 14.640625 2.777344 14.660156 2.796875 14.679688 2.796875 C 14.679688 2.796875 14.679688 2.796875 14.683594 2.796875 Z M 12.097656 2.796875 L 12.402344 2.796875 C 12.402344 2.796875 12.40625 2.796875 12.40625 2.796875 C 12.425781 2.796875 12.445312 2.777344 12.445312 2.757812 C 12.445312 2.75 12.441406 2.746094 12.441406 2.742188 L 12.441406 2.601562 C 12.445312 2.589844 12.445312 2.574219 12.445312 2.5625 C 12.445312 2.546875 12.445312 2.535156 12.441406 2.519531 L 12.441406 2.523438 L 11.519531 0.0273438 C 11.515625 0.0117188 11.5 0 11.484375 0 C 11.484375 0 11.480469 0 11.480469 0 L 11.289062 0 C 11.285156 0 11.28125 -0.00390625 11.273438 -0.00390625 C 11.257812 -0.00390625 11.242188 0.0078125 11.238281 0.0273438 L 10.34375 2.523438 C 10.339844 2.535156 10.339844 2.546875 10.339844 2.5625 C 10.339844 2.574219 10.339844 2.589844 10.34375 2.601562 L 10.34375 2.742188 C 10.34375 2.742188 10.34375 2.746094 10.34375 2.746094 C 10.34375 2.765625 10.359375 2.785156 10.378906 2.785156 C 10.386719 2.785156 10.390625 2.785156 10.394531 2.78125 L 10.6875 2.78125 C 10.6875 2.78125 10.691406 2.78125 10.691406 2.78125 C 10.707031 2.78125 10.722656 2.769531 10.726562 2.757812 L 10.726562 2.753906 L 11.378906 0.898438 L 12.042969 2.753906 C 12.042969 2.777344 12.0625 2.792969 12.082031 2.792969 Z M 12.097656 2.796875 "/>
    </g>
  </svg>


  <svg id="medium" version="1.1" xmlns="http://www.w3.org/2000/svg" x="0px" y="0px"
       viewBox="0 0 24 24" enable-background="new 0 0 24 24">
    <path fill="#3D4242" d="M 14.074219 5.035156 L 14.074219 0 L 0 0 L 0 19 L 18.398438 19 L 18.398438 5.035156 Z M 7.507812 9.539062 C 7.507812 9.542969 7.507812 9.550781 7.507812 9.558594 C 7.507812 9.5625 7.507812 9.570312 7.507812 9.578125 L 7.507812 9.574219 L 6.292969 12.902344 C 6.257812 12.984375 6.183594 13.046875 6.089844 13.054688 L 5.6875 13.054688 C 5.5625 13.054688 5.464844 12.949219 5.464844 12.824219 L 5.464844 12.652344 C 5.460938 12.632812 5.457031 12.605469 5.457031 12.578125 C 5.457031 12.550781 5.460938 12.523438 5.464844 12.5 L 5.464844 12.503906 L 6.585938 9.5 L 5.484375 6.496094 C 5.480469 6.476562 5.476562 6.449219 5.476562 6.421875 C 5.476562 6.394531 5.480469 6.371094 5.484375 6.34375 L 5.484375 6.347656 L 5.484375 6.175781 C 5.480469 6.167969 5.480469 6.160156 5.480469 6.15625 C 5.480469 6.035156 5.570312 5.9375 5.683594 5.929688 L 6.070312 5.929688 C 6.171875 5.929688 6.253906 5.988281 6.292969 6.078125 L 7.507812 9.40625 C 7.507812 9.410156 7.507812 9.417969 7.507812 9.425781 C 7.507812 9.429688 7.507812 9.4375 7.507812 9.445312 L 7.507812 9.441406 C 7.507812 9.457031 7.511719 9.472656 7.511719 9.492188 C 7.511719 9.507812 7.507812 9.523438 7.503906 9.539062 Z M 9.9375 9.539062 C 9.9375 9.542969 9.9375 9.550781 9.9375 9.558594 C 9.9375 9.5625 9.9375 9.570312 9.933594 9.578125 L 9.933594 9.574219 L 8.722656 12.902344 C 8.683594 12.992188 8.597656 13.054688 8.5 13.054688 L 8.113281 13.054688 C 8.109375 13.054688 8.101562 13.054688 8.09375 13.054688 C 7.972656 13.054688 7.875 12.953125 7.875 12.824219 L 7.875 12.652344 C 7.871094 12.632812 7.867188 12.605469 7.867188 12.578125 C 7.867188 12.550781 7.871094 12.523438 7.875 12.5 L 7.875 12.503906 L 9.015625 9.5 L 7.910156 6.496094 C 7.90625 6.476562 7.90625 6.449219 7.90625 6.421875 C 7.90625 6.394531 7.90625 6.371094 7.910156 6.34375 L 7.910156 6.347656 L 7.910156 6.175781 C 7.910156 6.046875 8.007812 5.945312 8.132812 5.945312 C 8.136719 5.945312 8.144531 5.945312 8.152344 5.945312 L 8.148438 5.945312 L 8.519531 5.945312 C 8.617188 5.945312 8.703125 6.007812 8.738281 6.097656 L 9.953125 9.425781 C 9.953125 9.429688 9.953125 9.4375 9.953125 9.441406 C 9.953125 9.449219 9.953125 9.457031 9.953125 9.460938 C 9.953125 9.46875 9.953125 9.472656 9.953125 9.480469 C 9.953125 9.488281 9.953125 9.492188 9.953125 9.5 C 9.949219 9.515625 9.941406 9.527344 9.933594 9.539062 Z M 12.363281 9.539062 C 12.367188 9.542969 12.367188 9.550781 12.367188 9.558594 C 12.367188 9.5625 12.363281 9.570312 12.363281 9.578125 L 12.363281 9.574219 L 11.148438 12.902344 C 11.113281 12.992188 11.027344 13.054688 10.929688 13.054688 L 10.542969 13.054688 C 10.535156 13.054688 10.53125 13.054688 10.523438 13.054688 C 10.402344 13.054688 10.304688 12.953125 10.304688 12.824219 L 10.304688 12.652344 C 10.296875 12.632812 10.296875 12.605469 10.296875 12.578125 C 10.296875 12.550781 10.296875 12.523438 10.304688 12.5 L 10.304688 12.503906 L 11.425781 9.5 L 10.359375 6.496094 C 10.355469 6.476562 10.351562 6.449219 10.351562 6.421875 C 10.351562 6.394531 10.355469 6.371094 10.359375 6.34375 L 10.359375 6.347656 L 10.359375 6.175781 C 10.359375 6.050781 10.457031 5.945312 10.578125 5.945312 L 10.929688 5.945312 C 11.019531 5.953125 11.097656 6.015625 11.128906 6.097656 L 12.34375 9.425781 C 12.347656 9.429688 12.347656 9.4375 12.347656 9.441406 C 12.347656 9.449219 12.347656 9.457031 12.34375 9.460938 C 12.347656 9.46875 12.347656 9.472656 12.347656 9.480469 C 12.347656 9.488281 12.347656 9.492188 12.34375 9.5 C 12.351562 9.511719 12.359375 9.523438 12.363281 9.535156 Z M 18.914062 4.007812 L 18.914062 3.800781 C 18.910156 3.78125 18.910156 3.761719 18.910156 3.742188 C 18.910156 3.722656 18.910156 3.703125 18.914062 3.683594 L 18.914062 3.6875 L 20.222656 0.0390625 C 20.226562 0.0117188 20.25 -0.00390625 20.273438 -0.00390625 C 20.28125 -0.00390625 20.289062 -0.00390625 20.296875 0 L 20.828125 0 C 20.832031 0 20.839844 -0.00390625 20.84375 -0.00390625 C 20.875 -0.00390625 20.902344 0.0234375 20.902344 0.0546875 C 20.902344 0.0703125 20.894531 0.0859375 20.882812 0.09375 L 19.484375 4.027344 C 19.476562 4.050781 19.457031 4.066406 19.433594 4.066406 C 19.433594 4.066406 19.429688 4.066406 19.429688 4.066406 L 18.96875 4.066406 C 18.9375 4.066406 18.914062 4.039062 18.914062 4.007812 Z M 21.105469 4.085938 L 21.546875 4.085938 C 21.578125 4.085938 21.601562 4.058594 21.601562 4.027344 L 23 0.09375 C 23.011719 0.0859375 23.015625 0.0703125 23.015625 0.0546875 C 23.015625 0.0234375 22.992188 -0.00390625 22.960938 -0.00390625 C 22.957031 -0.00390625 22.949219 0 22.945312 0 L 22.429688 0 C 22.429688 0 22.429688 0 22.425781 0 C 22.402344 0 22.382812 0.015625 22.375 0.0390625 L 21.050781 3.6875 C 21.046875 3.703125 21.046875 3.722656 21.046875 3.746094 C 21.046875 3.765625 21.046875 3.785156 21.050781 3.804688 L 21.050781 3.800781 L 21.050781 4.011719 C 21.046875 4.015625 21.046875 4.023438 21.046875 4.027344 C 21.046875 4.0625 21.070312 4.085938 21.101562 4.085938 C 21.105469 4.085938 21.105469 4.085938 21.105469 4.085938 Z M 17.386719 4.085938 L 17.828125 4.085938 C 17.832031 4.085938 17.832031 4.085938 17.832031 4.085938 C 17.863281 4.085938 17.886719 4.058594 17.886719 4.027344 C 17.886719 4.019531 17.886719 4.015625 17.886719 4.007812 L 17.886719 3.800781 C 17.886719 3.78125 17.890625 3.761719 17.890625 3.742188 C 17.890625 3.722656 17.886719 3.703125 17.882812 3.683594 L 17.886719 3.6875 L 16.558594 0.0390625 C 16.550781 0.015625 16.53125 0 16.507812 0 C 16.507812 0 16.503906 0 16.503906 0 L 16.226562 0 C 16.222656 -0.00390625 16.214844 -0.00390625 16.207031 -0.00390625 C 16.183594 -0.00390625 16.160156 0.0117188 16.15625 0.0390625 L 14.867188 3.6875 C 14.863281 3.703125 14.863281 3.722656 14.863281 3.742188 C 14.863281 3.761719 14.863281 3.78125 14.867188 3.800781 L 14.867188 4.007812 C 14.867188 4.011719 14.867188 4.011719 14.867188 4.011719 C 14.867188 4.042969 14.890625 4.070312 14.921875 4.070312 C 14.929688 4.070312 14.9375 4.070312 14.941406 4.066406 L 15.363281 4.066406 C 15.363281 4.066406 15.367188 4.066406 15.367188 4.066406 C 15.390625 4.066406 15.410156 4.050781 15.417969 4.027344 L 16.355469 1.308594 L 17.3125 4.027344 C 17.3125 4.058594 17.339844 4.085938 17.367188 4.085938 Z M 17.386719 4.085938 "/>

  </svg>

  <svg id="large" version="1.1" xmlns="http://www.w3.org/2000/svg" x="0px" y="0px"
       viewBox="0 0 32 32" enable-background="new 0 0 32 32">
    <g>
      <path fill="#3D4242" d="M 19.585938 6.890625 L 19.585938 0 L 0 0 L 0 26 L 25.601562 26 L 25.601562 6.890625 Z M 10.445312 13.050781 C 10.445312 13.058594 10.445312 13.070312 10.445312 13.078125 C 10.445312 13.085938 10.445312 13.097656 10.445312 13.105469 L 8.753906 17.652344 C 8.707031 17.769531 8.601562 17.851562 8.472656 17.863281 L 7.910156 17.863281 C 7.742188 17.863281 7.601562 17.722656 7.601562 17.550781 L 7.601562 17.316406 C 7.597656 17.285156 7.59375 17.25 7.59375 17.210938 C 7.59375 17.175781 7.597656 17.140625 7.605469 17.105469 L 7.601562 17.109375 L 9.164062 13 L 7.628906 8.890625 C 7.625 8.859375 7.621094 8.824219 7.621094 8.789062 C 7.621094 8.75 7.621094 8.714844 7.628906 8.679688 L 7.628906 8.683594 L 7.628906 8.449219 C 7.628906 8.441406 7.628906 8.433594 7.628906 8.421875 C 7.628906 8.261719 7.75 8.125 7.910156 8.113281 L 8.445312 8.113281 C 8.585938 8.113281 8.703125 8.195312 8.753906 8.316406 L 8.753906 8.320312 L 10.445312 12.871094 C 10.445312 12.878906 10.445312 12.886719 10.445312 12.894531 C 10.445312 12.90625 10.445312 12.914062 10.441406 12.921875 C 10.449219 12.941406 10.453125 12.964844 10.453125 12.988281 C 10.453125 13.007812 10.449219 13.03125 10.441406 13.054688 L 10.441406 13.050781 Z M 13.824219 13.050781 C 13.824219 13.058594 13.824219 13.070312 13.824219 13.078125 C 13.824219 13.085938 13.824219 13.097656 13.824219 13.105469 L 12.132812 17.652344 C 12.082031 17.777344 11.964844 17.863281 11.828125 17.863281 L 11.289062 17.863281 C 11.28125 17.863281 11.273438 17.863281 11.261719 17.863281 C 11.09375 17.863281 10.957031 17.722656 10.957031 17.550781 L 10.957031 17.316406 C 10.949219 17.285156 10.945312 17.25 10.945312 17.210938 C 10.945312 17.175781 10.949219 17.140625 10.957031 17.105469 L 10.957031 17.109375 L 12.542969 13 L 11.007812 8.890625 C 11 8.859375 10.996094 8.824219 10.996094 8.789062 C 10.996094 8.75 11 8.714844 11.007812 8.679688 L 11.007812 8.683594 L 11.007812 8.449219 C 11.007812 8.277344 11.144531 8.136719 11.3125 8.136719 C 11.324219 8.136719 11.332031 8.136719 11.339844 8.136719 L 11.851562 8.136719 C 11.988281 8.136719 12.105469 8.222656 12.15625 8.34375 L 12.160156 8.347656 L 13.847656 12.894531 C 13.847656 12.902344 13.847656 12.914062 13.847656 12.921875 C 13.847656 12.929688 13.847656 12.941406 13.847656 12.949219 C 13.847656 12.957031 13.847656 12.964844 13.847656 12.972656 C 13.847656 12.984375 13.847656 12.992188 13.847656 13 C 13.839844 13.019531 13.832031 13.039062 13.820312 13.054688 Z M 17.203125 13.050781 C 17.203125 13.058594 17.203125 13.070312 17.203125 13.078125 C 17.203125 13.085938 17.203125 13.097656 17.203125 13.105469 L 15.511719 17.652344 C 15.460938 17.777344 15.34375 17.863281 15.207031 17.863281 L 14.667969 17.863281 C 14.660156 17.863281 14.652344 17.863281 14.640625 17.863281 C 14.472656 17.863281 14.335938 17.722656 14.335938 17.550781 L 14.335938 17.316406 C 14.328125 17.285156 14.324219 17.25 14.324219 17.210938 C 14.324219 17.175781 14.328125 17.140625 14.335938 17.105469 L 14.335938 17.109375 L 15.898438 13 L 14.410156 8.890625 C 14.40625 8.859375 14.402344 8.824219 14.402344 8.789062 C 14.402344 8.75 14.40625 8.714844 14.410156 8.679688 L 14.410156 8.683594 L 14.410156 8.449219 C 14.410156 8.277344 14.546875 8.136719 14.71875 8.136719 L 15.203125 8.136719 C 15.332031 8.148438 15.4375 8.230469 15.484375 8.34375 L 15.488281 8.347656 L 17.175781 12.894531 C 17.175781 12.902344 17.175781 12.914062 17.175781 12.921875 C 17.175781 12.929688 17.175781 12.941406 17.175781 12.949219 C 17.175781 12.957031 17.175781 12.964844 17.175781 12.972656 C 17.175781 12.984375 17.175781 12.992188 17.175781 13 C 17.1875 13.015625 17.195312 13.03125 17.199219 13.050781 Z M 26.316406 5.484375 L 26.316406 5.199219 C 26.3125 5.175781 26.308594 5.148438 26.308594 5.121094 C 26.308594 5.09375 26.3125 5.066406 26.316406 5.042969 L 28.132812 0.0507812 C 28.144531 0.0195312 28.171875 -0.00390625 28.207031 -0.00390625 C 28.21875 -0.00390625 28.230469 -0.00390625 28.238281 0 L 28.980469 0 C 28.988281 -0.00390625 28.992188 -0.00390625 29.003906 -0.00390625 C 29.042969 -0.00390625 29.078125 0.03125 29.078125 0.0742188 C 29.078125 0.0976562 29.070312 0.117188 29.054688 0.128906 L 27.109375 5.511719 C 27.097656 5.542969 27.070312 5.5625 27.039062 5.5625 C 27.035156 5.5625 27.035156 5.5625 27.03125 5.5625 L 26.394531 5.5625 C 26.351562 5.5625 26.316406 5.527344 26.316406 5.484375 Z M 29.363281 5.589844 L 29.976562 5.589844 C 30.019531 5.589844 30.054688 5.554688 30.054688 5.511719 L 32 0.128906 C 32.015625 0.117188 32.023438 0.0976562 32.023438 0.0742188 C 32.023438 0.03125 31.988281 -0.00390625 31.945312 -0.00390625 C 31.9375 -0.00390625 31.929688 0 31.921875 0 L 31.925781 0 L 31.207031 0 C 31.207031 0 31.203125 0 31.203125 0 C 31.167969 0 31.140625 0.0234375 31.132812 0.0546875 L 29.289062 5.046875 C 29.28125 5.070312 29.28125 5.097656 29.28125 5.125 C 29.28125 5.152344 29.28125 5.179688 29.289062 5.203125 L 29.289062 5.488281 C 29.285156 5.496094 29.28125 5.503906 29.28125 5.511719 C 29.28125 5.558594 29.316406 5.589844 29.359375 5.589844 C 29.363281 5.589844 29.363281 5.589844 29.363281 5.589844 Z M 24.191406 5.589844 L 24.804688 5.589844 C 24.808594 5.589844 24.808594 5.589844 24.8125 5.589844 C 24.855469 5.589844 24.886719 5.554688 24.886719 5.511719 C 24.886719 5.503906 24.886719 5.492188 24.882812 5.484375 L 24.882812 5.199219 C 24.886719 5.175781 24.890625 5.148438 24.890625 5.121094 C 24.890625 5.09375 24.886719 5.066406 24.882812 5.042969 L 23.039062 0.0507812 C 23.027344 0.0195312 23 0 22.96875 0 C 22.964844 0 22.964844 0 22.960938 0 L 22.578125 0 C 22.570312 -0.00390625 22.558594 -0.00390625 22.550781 -0.00390625 C 22.515625 -0.00390625 22.484375 0.0195312 22.476562 0.0507812 L 20.683594 5.042969 C 20.679688 5.066406 20.675781 5.09375 20.675781 5.121094 C 20.675781 5.148438 20.679688 5.175781 20.6875 5.203125 L 20.683594 5.199219 L 20.683594 5.484375 C 20.683594 5.488281 20.683594 5.488281 20.683594 5.492188 C 20.683594 5.535156 20.71875 5.570312 20.761719 5.570312 C 20.769531 5.570312 20.78125 5.566406 20.789062 5.5625 L 21.375 5.5625 C 21.378906 5.5625 21.378906 5.5625 21.378906 5.5625 C 21.414062 5.5625 21.441406 5.542969 21.453125 5.511719 L 22.757812 1.792969 L 24.089844 5.511719 C 24.089844 5.554688 24.125 5.589844 24.164062 5.589844 Z M 24.191406 5.589844 "/>
    </g>
  </svg>

</svg>
