<svg xmlns="http://www.w3.org/2000/svg" width="16px" height="16px" viewBox="0 0 16 16" version="1.1">
<path style=" stroke:none;fill-rule:nonzero;fill:rgb(0%,0%,0%);fill-opacity:1;" d="M 6.449219 6.6875 L 11.535156 1.054688 C 11.710938 0.847656 12.03125 0.832031 12.238281 1.023438 L 14.480469 3.039062 C 14.6875 3.230469 14.703125 3.535156 14.527344 3.742188 L 7.183594 11.886719 C 7.007812 12.078125 6.703125 12.113281 6.496094 11.9375 L 1.535156 7.839844 C 1.3125 7.664062 1.296875 7.34375 1.472656 7.136719 L 3.390625 4.800781 C 3.566406 4.59375 3.871094 4.558594 4.097656 4.734375 Z M 3.007812 3.007812 L 3.007812 12.992188 L 12.992188 12.992188 L 12.992188 3.007812 Z M 2 2 L 14 2 L 14 14 L 2 14 Z M 2 2 "/>
</svg>
