<svg xmlns="http://www.w3.org/2000/svg" width="16px" height="16px" viewBox="0 0 16 16" version="1.1">
<path style=" stroke:none;fill-rule:nonzero;fill:rgb(0%,0%,0%);fill-opacity:1;" d="M 2 7.3125 L 0.992188 7.3125 L 0.992188 1.3125 L 6.238281 1.3125 L 6.976562 0.496094 L 8.464844 1.839844 L 6.992188 3.457031 L 6.992188 7.3125 Z M 2 6.304688 L 6 6.304688 L 6 4.574219 L 4.496094 6.238281 L 2 4.191406 Z M 2 2.304688 L 2 3.472656 L 2.910156 2.351562 L 4.289062 3.488281 L 5.34375 2.304688 Z M 8 4.894531 L 8 3.742188 L 16 3.742188 L 16 4.894531 Z M 8 7.199219 L 8 6.046875 L 16 6.046875 L 16 7.199219 Z M 0.992188 9.488281 L 0.992188 8.351562 L 16 8.351562 L 16 9.488281 Z M 0.992188 11.679688 L 0.992188 10.527344 L 16 10.527344 L 16 11.679688 Z M 0.992188 13.871094 L 0.992188 12.71875 L 12.207031 12.71875 L 12.207031 13.871094 Z M 0.992188 13.871094 "/>
</svg>
