<svg xmlns="http://www.w3.org/2000/svg" width="16px" height="16px" viewBox="0 0 16 16" version="1.1">
<path style=" stroke:none;fill-rule:nonzero;fill:rgb(0%,0%,0%);fill-opacity:1;" d="M 12.699219 2.804688 L 15.546875 2.804688 L 15.546875 16.097656 L 0.308594 16.097656 L 0.308594 2.804688 L 3.175781 2.804688 L 3.175781 3.757812 C 3.175781 4.277344 3.363281 4.726562 3.738281 5.101562 C 4.113281 5.472656 4.5625 5.660156 5.085938 5.660156 C 5.609375 5.660156 6.054688 5.472656 6.417969 5.101562 C 6.78125 4.726562 6.96875 4.277344 6.980469 3.757812 L 6.980469 2.804688 L 8.890625 2.804688 L 8.890625 3.757812 C 8.890625 4.277344 9.078125 4.726562 9.453125 5.101562 C 9.832031 5.472656 10.28125 5.660156 10.804688 5.660156 C 11.328125 5.660156 11.769531 5.472656 12.132812 5.101562 C 12.5 4.726562 12.6875 4.277344 12.699219 3.757812 Z M 5.085938 14.179688 L 5.085938 12.289062 L 3.175781 12.289062 L 3.175781 14.179688 Z M 5.085938 10.386719 L 5.085938 8.484375 L 3.175781 8.484375 L 3.175781 10.386719 Z M 8.890625 14.179688 L 8.890625 12.289062 L 6.980469 12.289062 L 6.980469 14.179688 Z M 8.890625 10.386719 L 8.890625 8.484375 L 6.980469 8.484375 L 6.980469 10.386719 Z M 10.785156 14.179688 L 12.699219 12.289062 L 10.785156 12.289062 Z M 12.699219 10.386719 L 12.699219 8.484375 L 10.785156 8.484375 L 10.785156 10.386719 Z M 4.113281 3.738281 L 4.113281 1.835938 C 4.113281 1.574219 4.210938 1.355469 4.402344 1.171875 C 4.597656 0.992188 4.824219 0.902344 5.085938 0.902344 C 5.347656 0.902344 5.574219 0.992188 5.769531 1.171875 C 5.960938 1.355469 6.046875 1.574219 6.023438 1.835938 L 6.023438 3.738281 C 6.023438 4.011719 5.933594 4.238281 5.75 4.421875 C 5.570312 4.601562 5.347656 4.691406 5.085938 4.691406 C 4.8125 4.691406 4.585938 4.601562 4.402344 4.421875 C 4.222656 4.238281 4.125 4.011719 4.113281 3.738281 Z M 9.832031 3.738281 L 9.832031 1.835938 C 9.832031 1.574219 9.921875 1.355469 10.101562 1.171875 C 10.285156 0.992188 10.511719 0.902344 10.785156 0.902344 C 11.046875 0.902344 11.273438 0.992188 11.46875 1.171875 C 11.664062 1.355469 11.753906 1.574219 11.742188 1.835938 L 11.742188 3.738281 C 11.742188 4.011719 11.652344 4.238281 11.46875 4.421875 C 11.285156 4.601562 11.066406 4.691406 10.804688 4.691406 C 10.542969 4.691406 10.3125 4.601562 10.121094 4.421875 C 9.925781 4.238281 9.832031 4.011719 9.832031 3.738281 Z M 9.832031 3.738281 "/>
</svg>
