<svg xmlns="http://www.w3.org/2000/svg" width="16px" height="16px" viewBox="0 0 16 16" version="1.1">
<path style=" stroke:none;fill-rule:nonzero;fill:rgb(0%,0%,0%);fill-opacity:1;" d="M 1.007812 1.585938 L 6.414062 1.585938 L 6.414062 6.992188 L 1.007812 6.992188 Z M 4.097656 6 L 4.097656 3.359375 L 3.28125 3.359375 L 3.28125 6 Z M 3.230469 2.671875 C 3.230469 2.800781 3.265625 2.894531 3.359375 2.960938 C 3.441406 3.039062 3.550781 3.070312 3.679688 3.070312 C 3.824219 3.070312 3.921875 3.039062 4.015625 2.960938 C 4.097656 2.894531 4.144531 2.800781 4.144531 2.671875 C 4.144531 2.558594 4.097656 2.464844 4.015625 2.382812 C 3.921875 2.320312 3.824219 2.273438 3.679688 2.273438 C 3.550781 2.273438 3.441406 2.320312 3.359375 2.382812 C 3.265625 2.464844 3.230469 2.558594 3.230469 2.671875 Z M 8 4.894531 L 8 3.742188 L 16 3.742188 L 16 4.894531 Z M 8 7.199219 L 8 6.046875 L 16 6.046875 L 16 7.199219 Z M 0.992188 9.488281 L 0.992188 8.351562 L 16 8.351562 L 16 9.488281 Z M 0.992188 11.679688 L 0.992188 10.527344 L 16 10.527344 L 16 11.679688 Z M 0.992188 13.871094 L 0.992188 12.71875 L 12.207031 12.71875 L 12.207031 13.871094 Z M 0.992188 13.871094 "/>
</svg>
