<svg width="18" height="18" viewBox="0 0 4.7624999 4.7625" version="1.1" xmlns="http://www.w3.org/2000/svg">
  <path style="stroke-width:0.323465"
        d="m 0.48989248,1.799567 c 1.25771602,0 2.51543202,0 3.77314802,0 0.031435,0.09636 -0.052401,0.077449 -0.1188062,0.075969 -1.2181139,0 -2.4362279,0 -3.65434182,0 0,-0.025323 0,-0.050646 0,-0.075969 z M 2.3834516,0.42160343 C 3.0066281,0.76184247 3.6298046,1.1020816 4.2529811,1.4423206 4.1941385,1.5301745 4.1352958,1.6180284 4.0764532,1.7058823 3.4532768,1.3656433 2.8301002,1.0254042 2.2069238,0.68516512 2.2657664,0.59731122 2.324609,0.50945733 2.3834516,0.42160343 Z M 0.50247009,1.4297535 C 1.1256619,1.0972972 1.7488537,0.76484083 2.3720454,0.43238452 2.4274725,0.52399036 2.4828996,0.6155962 2.5383267,0.70720204 1.9151349,1.0396584 1.2919431,1.3721147 0.66875135,1.704571 0.61332427,1.6129652 0.55789718,1.5213593 0.50247009,1.4297535 Z m -0.009763,0.00194 c 1.25542038,0.0027 2.51084068,0.0054 3.76626098,0.0081 -3.816e-4,0.099571 -7.632e-4,0.1991419 -0.00114,0.2987127 -1.2554203,-0.0027 -2.5108406,-0.0054 -3.76626096,-0.0081 3.8159e-4,-0.099571 7.6318e-4,-0.1991419 0.001145,-0.2987127 z m 9.708e-5,2.5439396 c 1.2554497,0 2.5108994,0 3.7663491,0 0,0.1031471 0,0.2062942 0,0.3094413 -1.2554497,0 -2.5108994,0 -3.7663491,0 0,-0.1031471 0,-0.2062942 0,-0.3094413 z M 2.3334157,2.899971 C 2.4090547,2.877563 2.4803918,2.936545 2.3662587,2.92787 2.3376597,2.92905 2.3265477,2.93458 2.3334157,2.899971 Z M 2.2357697,2.774426 c 0.08203,-0.011463 0.1362953,0.020542 0.022042,0.013949 -0.011888,-0.00334 -0.030545,0.00967 -0.022042,-0.013949 z M 2.207871,2.997617 c 0.074397,0 0.148794,0 0.223191,0 C 2.398232,3.030639 2.3036745,3.001937 2.2474525,3.011566 2.2355585,3.006386 2.1973825,3.024072 2.207871,2.997617 Z M 2.0900993,1.9583807 c 0.1962585,0 0.3925169,0 0.5887754,0 0,0.6365449 0,1.2730897 0,1.9096346 -0.1962585,0 -0.3925169,0 -0.5887754,0 0,-0.6365449 0,-1.2730897 0,-1.9096346 z m 1.4790535,0.00103 c 0.1994164,0 0.3988329,0 0.5982493,0 0,0.6367581 0,1.2735161 0,1.9102742 -0.1994164,0 -0.3988329,0 -0.5982493,0 0,-0.6367581 0,-1.2735161 0,-1.9102742 z m -2.9751611,7.164e-4 c 0.19941643,0 0.39883287,0 0.5982493,0 0,0.6367581 0,1.2735162 0,1.9102743 -0.19941643,0 -0.39883287,0 -0.5982493,0 0,-0.6367581 0,-1.2735162 0,-1.9102743 z"/>
</svg>
