<svg xmlns="http://www.w3.org/2000/svg" width="16px" height="16px" viewBox="0 0 16 16" version="1.1">
<path style=" stroke:none;fill-rule:nonzero;fill:rgb(0%,0%,0%);fill-opacity:1;" d="M 2.160156 6.320312 C 2.160156 3.089844 4.769531 0.480469 8 0.480469 C 11.230469 0.480469 13.839844 3.089844 13.839844 6.320312 C 13.839844 6.574219 13.824219 6.816406 13.808594 7.054688 C 13.585938 9.648438 11.566406 11.105469 7.761719 14.832031 C 5.617188 12.574219 3.585938 10.929688 2.785156 8.960938 C 2.382812 8.175781 2.160156 7.28125 2.160156 6.320312 Z M 7.886719 8.65625 C 9.183594 8.65625 10.222656 7.617188 10.222656 6.320312 C 10.222656 5.039062 9.183594 3.984375 7.886719 3.984375 C 6.59375 3.984375 5.550781 5.039062 5.550781 6.320312 C 5.550781 7.617188 6.59375 8.65625 7.886719 8.65625 Z M 7.886719 8.65625 "/>
</svg>
