<?xml version="1.0" encoding="UTF-8" standalone="no"?>
<svg
        xmlns:svg="http://www.w3.org/2000/svg"
        xmlns="http://www.w3.org/2000/svg"
        version="1.1"
        width="16"
        height="16"
        viewBox="0 0 16 16">
  <path
          d="M 5.0025832,11.369988 5.6841507,10.117807 Q 4.9233313,9.5630427 4.4795201,8.7229714 4.0357089,7.8829001 4.0515593,6.9160257 4.0515593,5.8540481 4.590473,4.934725 2.5616217,5.965001 1.2143376,8.0572541 2.7042753,10.339712 5.0025832,11.369988 Z M 8.4421206,4.6494179 q 0,-0.174354 -0.1268031,-0.3011571 Q 8.1885144,4.221457 8.0141591,4.2373076 q -1.1095278,0 -1.9020482,0.7925202 -0.7925196,0.79252 -0.7925196,1.8861979 0,0.174354 0.126803,0.3011571 0.1268032,0.126803 0.3011576,0.126803 0.1743545,0 0.3011577,-0.126803 0.1268031,-0.1268031 0.1268031,-0.3011571 0,-0.7608197 0.5389137,-1.2997329 0.5389142,-0.5389138 1.2997327,-0.5389138 0.1743553,0 0.3011584,-0.1268035 Q 8.4421206,4.8237724 8.4421206,4.6494179 Z M 11.643901,2.9692756 q 0,0.063403 0,0.079252 Q 10.708728,4.7128197 8.8542311,8.0572541 6.9997338,11.401689 6.06456,13.06598 L 5.6207489,13.8585 q -0.079252,0.142654 -0.2377559,0.142654 -0.1109529,0 -1.1887801,-0.618166 -0.1426536,-0.0951 -0.1426536,-0.253607 0,-0.110952 0.39626,-0.776669 Q 3.1797873,11.782098 2.1178105,10.831074 1.0558337,9.88005 0.26331367,8.6595702 0.08895923,8.390113 0.08895923,8.0572541 q 0,-0.3328584 0.17435444,-0.6181651 Q 1.626448,5.3626866 3.6235985,4.1580558 5.6207489,2.9534252 8.0141591,2.9534252 q 0.7925204,0 1.5850401,0.1585041 L 10.090562,2.2560077 q 0.07925,-0.1426536 0.237756,-0.1426536 0.04755,0 0.158504,0.047552 0.110953,0.047551 0.285307,0.1426536 0.174355,0.095102 0.285307,0.1585041 0.110953,0.063402 0.285308,0.1585034 0.174354,0.095103 0.158503,0.1109533 0.142654,0.079252 0.142654,0.2377551 z m 0.332859,3.9467501 q 0,1.2363308 -0.697418,2.2507555 -0.697417,1.0144268 -1.8544968,1.4423868 L 11.913358,6.1710568 q 0.0634,0.3962603 0.0634,0.7449689 z m 3.9626,1.1412284 q 0,0.3011577 -0.174355,0.6023161 -0.348709,0.5706135 -0.966874,1.2838811 -1.331434,1.5216387 -3.074978,2.3617097 -1.7435439,0.840072 -3.7089939,0.840072 l 0.6498663,-1.17293 Q 10.550223,11.8138 12.135263,10.767672 13.720303,9.7215464 14.813982,8.0572541 13.783705,6.4722146 12.309618,5.4577881 l 0.554765,-0.9985747 q 0.84007,0.5706144 1.61674,1.3472837 0.776669,0.7766696 1.283882,1.6325919 0.174355,0.3011577 0.174355,0.6181651 z"
          style="stroke-width:0.01547891" />
</svg>
