<svg xmlns="http://www.w3.org/2000/svg" width="16px" height="16px" viewBox="0 0 16 16" version="1.1">
<path style=" stroke:none;fill-rule:nonzero;fill:rgb(0%,0%,0%);fill-opacity:1;" d="M 9.585938 15.199219 L 9.585938 10.894531 C 9.585938 10.625 9.359375 10.398438 9.089844 10.398438 L 6.910156 10.398438 C 6.640625 10.398438 6.414062 10.625 6.414062 10.894531 L 6.414062 15.199219 L 3.742188 15.199219 C 3.472656 15.199219 3.246094 14.976562 3.246094 14.703125 L 3.246094 9.007812 C 3.246094 8.878906 3.296875 8.753906 3.390625 8.65625 L 7.648438 4.351562 C 7.839844 4.160156 8.160156 4.160156 8.351562 4.351562 L 12.609375 8.65625 C 12.703125 8.753906 12.753906 8.878906 12.753906 9.007812 L 12.753906 14.703125 C 12.753906 14.976562 12.542969 15.199219 12.257812 15.199219 Z M 1.359375 9.742188 L 0.238281 8.625 L 8 0.800781 L 15.761719 8.625 L 14.640625 9.742188 L 8 3.070312 Z M 11.105469 2.960938 L 11.105469 1.824219 L 12.671875 1.824219 L 12.671875 4.527344 Z M 11.105469 2.960938 "/>
</svg>
