<svg xmlns="http://www.w3.org/2000/svg" width="16px" height="16px" viewBox="0 0 16 16" version="1.1">
<path style=" stroke:none;fill-rule:nonzero;fill:rgb(0%,0%,0%);fill-opacity:1;" d="M 3.152344 6.207031 L 3.152344 1.695312 L 12.863281 1.695312 L 12.863281 6.207031 L 14.6875 6.207031 C 14.960938 6.207031 15.183594 6.433594 15.183594 6.703125 L 15.183594 14.289062 C 15.183594 14.558594 14.960938 14.785156 14.6875 14.785156 L 1.070312 14.785156 C 0.800781 14.785156 0.574219 14.558594 0.574219 14.289062 L 0.574219 6.703125 C 0.574219 6.433594 0.800781 6.207031 1.070312 6.207031 Z M 12.015625 6.785156 L 12.015625 2.433594 L 4 2.433594 L 4 6.785156 Z M 5.105469 8.0625 L 5.105469 9.328125 L 6.496094 9.328125 L 6.496094 8.0625 Z M 5.105469 9.855469 L 5.105469 11.136719 L 6.496094 11.136719 L 6.496094 9.855469 Z M 7.183594 8.0625 L 7.183594 9.328125 L 8.574219 9.328125 L 8.574219 8.0625 Z M 7.183594 9.855469 L 7.183594 11.136719 L 8.574219 11.136719 L 8.574219 9.855469 Z M 9.265625 8.0625 L 9.265625 9.328125 L 10.640625 9.328125 L 10.640625 8.0625 Z M 9.265625 9.855469 L 9.265625 11.136719 L 10.640625 11.136719 L 10.640625 9.855469 Z M 5.105469 11.648438 L 5.105469 12.929688 L 6.496094 12.929688 L 6.496094 11.648438 Z M 7.183594 11.648438 L 7.183594 12.929688 L 8.574219 12.929688 L 8.574219 11.648438 Z M 9.265625 11.648438 L 9.265625 12.929688 L 10.640625 12.929688 L 10.640625 11.648438 Z M 5.105469 4.894531 L 10.558594 4.894531 L 10.558594 5.695312 L 5.105469 5.695312 Z M 5.105469 3.519531 L 10.558594 3.519531 L 10.558594 4.320312 L 5.105469 4.320312 Z M 5.105469 3.519531 "/>
</svg>
