<svg xmlns="http://www.w3.org/2000/svg" width="16px" height="16px" viewBox="0 0 16 16" version="1.1">
<path style=" stroke:none;fill-rule:nonzero;fill:rgb(0%,0%,0%);fill-opacity:1;" d="M 5.9375 13.472656 L 3.3125 13.472656 L 3.3125 5.28125 L 0.734375 6.015625 L 0.734375 4.0625 L 5.695312 2.382812 L 5.9375 2.382812 Z M 15.359375 13.472656 L 7.472656 13.472656 L 7.472656 11.808594 L 11.105469 8.046875 C 12 7.054688 12.449219 6.257812 12.449219 5.664062 C 12.449219 5.183594 12.335938 4.832031 12.128906 4.574219 C 11.921875 4.320312 11.617188 4.207031 11.199219 4.207031 C 10.816406 4.207031 10.480469 4.367188 10.238281 4.703125 C 9.984375 5.039062 9.855469 5.457031 9.855469 5.953125 L 7.230469 5.953125 C 7.230469 5.265625 7.40625 4.640625 7.761719 4.0625 C 8.113281 3.488281 8.59375 3.039062 9.199219 2.703125 C 9.824219 2.382812 10.511719 2.222656 11.265625 2.222656 C 12.496094 2.222656 13.441406 2.496094 14.097656 3.054688 C 14.753906 3.601562 15.089844 4.398438 15.089844 5.441406 C 15.089844 5.871094 14.992188 6.304688 14.832031 6.71875 C 14.671875 7.136719 14.414062 7.566406 14.0625 8.015625 C 13.710938 8.480469 13.152344 9.089844 12.367188 9.839844 L 10.910156 11.503906 L 15.359375 11.503906 Z M 15.359375 13.472656 "/>
</svg>
