<svg xmlns="http://www.w3.org/2000/svg" width="16px" height="16px" viewBox="0 0 16 16" version="1.1">
  <path d="M 2.144531 5.902344 L 13.617188 5.902344 C 13.886719 5.902344 14.113281 6.128906 14.113281 6.398438 L 14.113281 14.097656 C 14.113281 14.367188 13.886719 14.59375 13.617188 14.59375 L 2.144531 14.59375 C 1.871094 14.59375 1.648438 14.367188 1.648438 14.097656 L 1.648438 6.398438 C 1.648438 6.128906 1.871094 5.902344 2.144531 5.902344 Z M 5.121094 7.777344 L 5.121094 9.070312 L 6.496094 9.070312 L 6.496094 7.777344 Z M 5.121094 9.601562 L 5.121094 10.894531 L 6.496094 10.894531 L 6.496094 9.601562 Z M 7.183594 7.777344 L 7.183594 9.070312 L 8.574219 9.070312 L 8.574219 7.777344 Z M 7.183594 9.601562 L 7.183594 10.894531 L 8.574219 10.894531 L 8.574219 9.601562 Z M 9.265625 7.777344 L 9.265625 9.070312 L 10.65625 9.070312 L 10.65625 7.777344 Z M 9.265625 9.601562 L 9.265625 10.894531 L 10.65625 10.894531 L 10.65625 9.601562 Z M 5.121094 11.425781 L 5.121094 12.71875 L 6.496094 12.71875 L 6.496094 11.425781 Z M 7.183594 11.425781 L 7.183594 12.71875 L 8.574219 12.71875 L 8.574219 11.425781 Z M 9.265625 11.425781 L 9.265625 12.71875 L 10.65625 12.71875 L 10.65625 11.425781 Z M 0.800781 4.703125 L 0.800781 3.28125 C 0.800781 2.976562 1.023438 2.71875 1.359375 2.65625 C 3.617188 2.207031 5.855469 2 8.03125 2 C 10.222656 2 12.398438 2.207031 14.574219 2.640625 C 14.894531 2.703125 15.121094 2.976562 15.121094 3.28125 L 15.121094 4.703125 C 15.121094 5.054688 14.800781 5.34375 14.433594 5.34375 L 12.015625 5.34375 C 11.726562 5.328125 11.585938 5.167969 11.585938 4.863281 C 11.585938 4.382812 11.214844 3.984375 10.703125 3.902344 C 9.695312 3.742188 8.800781 3.664062 8.03125 3.664062 C 7.296875 3.664062 6.433594 3.742188 5.457031 3.886719 C 4.910156 3.984375 4.511719 4.414062 4.511719 4.945312 C 4.511719 5.199219 4.367188 5.328125 4.078125 5.34375 L 1.488281 5.34375 C 1.105469 5.34375 0.800781 5.054688 0.800781 4.703125 Z M 0.800781 4.703125 "/>
</svg>
