<svg xmlns="http://www.w3.org/2000/svg" width="16px" height="16px" viewBox="0 0 16 16" version="1.1">
<path style=" stroke:none;fill-rule:nonzero;fill:rgb(0%,0%,0%);fill-opacity:1;" d="M 8 14.878906 C 4.191406 14.878906 1.121094 11.808594 1.121094 8 C 1.121094 4.191406 4.191406 1.121094 8 1.121094 C 11.808594 1.121094 14.878906 4.191406 14.878906 8 C 14.878906 11.808594 11.808594 14.878906 8 14.878906 Z M 8 13.632812 C 11.105469 13.632812 13.632812 11.105469 13.632812 8 C 13.632812 4.894531 11.105469 2.367188 8 2.367188 C 4.894531 2.367188 2.382812 4.894531 2.382812 8 C 2.382812 11.105469 4.894531 13.632812 8 13.632812 Z M 8 11.441406 C 6.097656 11.441406 4.558594 9.902344 4.558594 8 C 4.558594 6.097656 6.097656 4.558594 8 4.558594 C 9.902344 4.558594 11.441406 6.097656 11.441406 8 C 11.441406 9.902344 9.902344 11.441406 8 11.441406 Z M 8 11.441406 "/>
</svg>
