<svg xmlns="http://www.w3.org/2000/svg" width="16px" height="16px" viewBox="0 0 16 16" version="1.1">
<path style=" stroke:none;fill-rule:nonzero;fill:rgb(0%,0%,0%);fill-opacity:1;" d="M 15.855469 6.136719 C 15.855469 6.273438 15.769531 6.425781 15.597656 6.597656 L 12.152344 9.945312 L 12.96875 14.6875 C 12.96875 14.734375 12.96875 14.800781 12.96875 14.890625 C 12.96875 15.015625 12.9375 15.125 12.867188 15.214844 C 12.800781 15.304688 12.703125 15.355469 12.578125 15.367188 C 12.464844 15.367188 12.339844 15.328125 12.203125 15.25 L 7.917969 13.003906 L 3.652344 15.25 C 3.515625 15.328125 3.386719 15.367188 3.257812 15.367188 C 3.132812 15.367188 3.039062 15.316406 2.96875 15.214844 C 2.902344 15.113281 2.867188 15.003906 2.867188 14.890625 C 2.867188 14.847656 2.871094 14.777344 2.882812 14.6875 L 3.703125 9.945312 L 0.238281 6.597656 C 0.078125 6.425781 0 6.273438 0 6.136719 C 0 5.898438 0.175781 5.75 0.527344 5.695312 L 5.308594 5.015625 L 7.457031 0.695312 C 7.582031 0.4375 7.738281 0.304688 7.917969 0.304688 C 8.101562 0.304688 8.261719 0.4375 8.398438 0.695312 L 10.53125 5.015625 L 15.308594 5.695312 C 15.671875 5.75 15.855469 5.898438 15.855469 6.136719 Z M 15.855469 6.136719 "/>
</svg>
