<svg xmlns="http://www.w3.org/2000/svg" width="16px" height="16px" viewBox="0 0 16 16" version="1.1">
<path style=" stroke:none;fill-rule:nonzero;fill:rgb(0%,0%,0%);fill-opacity:1;" d="M 10.59375 5.886719 L 10.59375 11.585938 L 5.488281 11.585938 L 5.488281 5.886719 L 3.566406 5.886719 C 3.28125 5.886719 3.054688 5.664062 3.054688 5.390625 C 3.054688 5.230469 3.136719 5.089844 3.265625 4.992188 L 7.726562 1.566406 C 7.921875 1.441406 8.160156 1.441406 8.335938 1.566406 L 12.816406 4.992188 C 13.039062 5.167969 13.070312 5.472656 12.910156 5.695312 C 12.816406 5.824219 12.671875 5.886719 12.511719 5.886719 Z M 13.40625 13.023438 L 13.40625 10.03125 L 14.753906 10.03125 L 14.753906 14.496094 L 1.328125 14.496094 L 1.328125 10.03125 L 2.671875 10.03125 L 2.671875 13.023438 Z M 13.40625 13.023438 "/>
</svg>
